<svg width="152" height="42" viewBox="0 0 152 42" fill="none" xmlns="http://www.w3.org/2000/svg">
<g clip-path="url(#clip0_8_46)">
<path d="M21.32 9.28C24.6 10.64 29.08 12.68 32.36 14.12L29.04 17.72C25.8 21.2 22.48 24.64 19.04 27.92C19.92 28.44 20.76 28.88 21.32 29.24C27.04 32.68 32.76 36.24 38.04 40.4C39.24 39.32 40 37.76 40 36L40 22C40 10.96 31.04 2 20 2L6 2C4.92 2 3.92 2.28 3.04 2.8C9.28 4.52 15.36 6.84 21.32 9.28Z" fill="url(#paint0_linear_8_46)"/>
<path d="M36.96 41.2C29.52 39.16 22.28 36.28 15.2 33.24C13.32 32.4 9.44002 30.68 7.56002 29.84L10.88 26.24C14.12 22.76 17.48 19.32 20.92 16.04C20.04 15.52 19.2 15.08 18.64 14.72C12.88 11.28 7.20002 7.68 1.96003 3.56C0.760025 4.64 2.2771e-05 6.24 2.26941e-05 8L2.20821e-05 22C2.15996e-05 33.04 8.96002 42 20 42L34 42C35.08 42 36.08 41.72 36.96 41.2Z" fill="url(#paint1_linear_8_46)"/>
</g>
<path d="M49.024 32V29.6L62.368 11.36L62.752 12.224H49.792V9.696H65.184V12.064L52.064 29.984L51.712 29.472H65.568V32H49.024ZM70.6305 32L65.9585 16.224H68.8385L72.0385 27.904L75.8145 16.224H78.2145L81.9905 27.84L85.2225 16.224H88.1025L83.3985 32H80.9025L77.0305 20L73.1585 32H70.6305ZM101.672 32L101.48 28.832V22.112C101.48 20.896 101.139 19.9573 100.456 19.296C99.7947 18.6347 98.8027 18.304 97.48 18.304C96.6267 18.304 95.8267 18.4853 95.08 18.848C94.3333 19.1893 93.608 19.776 92.904 20.608L90.952 18.944C91.8267 17.92 92.8293 17.1733 93.96 16.704C95.0907 16.2133 96.328 15.968 97.672 15.968C99.7413 15.968 101.341 16.5013 102.472 17.568C103.603 18.6347 104.168 20.1493 104.168 22.112V32H101.672ZM96.456 32.256C95.2613 32.256 94.216 32.0533 93.32 31.648C92.4453 31.2213 91.7627 30.6347 91.272 29.888C90.8027 29.1413 90.568 28.2773 90.568 27.296C90.568 26.4213 90.7387 25.6853 91.08 25.088C91.4427 24.4693 91.9013 23.9893 92.456 23.648C93.0107 23.2853 93.64 23.04 94.344 22.912C95.0693 22.7627 95.8267 22.688 96.616 22.688H101.736V24.736H97C96.5307 24.736 96.04 24.7787 95.528 24.864C95.016 24.9493 94.568 25.1307 94.184 25.408C93.9067 25.6213 93.6827 25.888 93.512 26.208C93.3627 26.528 93.288 26.9013 93.288 27.328C93.288 28.16 93.5973 28.8213 94.216 29.312C94.8347 29.8027 95.6667 30.048 96.712 30.048C97.5867 30.048 98.376 29.8453 99.08 29.44C99.8053 29.0347 100.381 28.48 100.808 27.776C101.256 27.0507 101.48 26.24 101.48 25.344L102.6 26.496C102.472 27.6267 102.131 28.6293 101.576 29.504C101.021 30.3787 100.307 31.0613 99.432 31.552C98.5787 32.0213 97.5867 32.256 96.456 32.256ZM108.585 38.528V16.224H111.273V20.928L110.409 20.32C110.687 19.4027 111.092 18.624 111.625 17.984C112.18 17.3227 112.852 16.8213 113.641 16.48C114.431 16.1387 115.327 15.968 116.329 15.968C117.759 15.968 119.007 16.3307 120.073 17.056C121.161 17.76 122.004 18.7307 122.601 19.968C123.199 21.184 123.497 22.5707 123.497 24.128C123.497 25.7707 123.177 27.2107 122.537 28.448C121.897 29.664 121.033 30.6027 119.945 31.264C118.857 31.9253 117.652 32.256 116.329 32.256C115.327 32.256 114.431 32.0747 113.641 31.712C112.852 31.3493 112.191 30.848 111.657 30.208C111.124 29.568 110.74 28.8427 110.505 28.032L111.273 27.296V38.528H108.585ZM115.881 29.792C116.841 29.792 117.684 29.5573 118.409 29.088C119.156 28.5973 119.732 27.9253 120.137 27.072C120.564 26.2187 120.777 25.2373 120.777 24.128C120.777 23.0187 120.564 22.0373 120.137 21.184C119.732 20.3307 119.156 19.6693 118.409 19.2C117.684 18.7093 116.841 18.464 115.881 18.464C114.921 18.464 114.079 18.7093 113.353 19.2C112.628 19.6693 112.063 20.3307 111.657 21.184C111.252 22.0373 111.049 23.0187 111.049 24.128C111.049 25.2373 111.252 26.2187 111.657 27.072C112.063 27.9253 112.628 28.5973 113.353 29.088C114.079 29.5573 114.921 29.792 115.881 29.792ZM127.367 38.528V16.224H130.055V20.928L129.191 20.32C129.468 19.4027 129.873 18.624 130.407 17.984C130.961 17.3227 131.633 16.8213 132.423 16.48C133.212 16.1387 134.108 15.968 135.111 15.968C136.54 15.968 137.788 16.3307 138.855 17.056C139.943 17.76 140.785 18.7307 141.383 19.968C141.98 21.184 142.279 22.5707 142.279 24.128C142.279 25.7707 141.959 27.2107 141.319 28.448C140.679 29.664 139.815 30.6027 138.727 31.264C137.639 31.9253 136.433 32.256 135.111 32.256C134.108 32.256 133.212 32.0747 132.423 31.712C131.633 31.3493 130.972 30.848 130.439 30.208C129.905 29.568 129.521 28.8427 129.286 28.032L130.055 27.296V38.528H127.367ZM134.663 29.792C135.623 29.792 136.465 29.5573 137.191 29.088C137.937 28.5973 138.513 27.9253 138.919 27.072C139.345 26.2187 139.559 25.2373 139.559 24.128C139.559 23.0187 139.345 22.0373 138.919 21.184C138.513 20.3307 137.937 19.6693 137.191 19.2C136.465 18.7093 135.623 18.464 134.663 18.464C133.703 18.464 132.86 18.7093 132.135 19.2C131.409 19.6693 130.844 20.3307 130.439 21.184C130.033 22.0373 129.831 23.0187 129.831 24.128C129.831 25.2373 130.033 26.2187 130.439 27.072C130.844 27.9253 131.409 28.5973 132.135 29.088C132.86 29.5573 133.703 29.792 134.663 29.792ZM146.116 32V16.224H148.804V32H146.116ZM145.86 13.376V9.696H149.06V13.376H145.86Z" fill="url(#paint2_linear_8_46)"/>
<defs>
<linearGradient id="paint0_linear_8_46" x1="7.25472" y1="-1.43264" x2="43.5815" y2="34.8942" gradientUnits="userSpaceOnUse">
<stop offset="2.65193e-07" stop-color="#FF7389"/>
<stop offset="1" stop-color="#FF6800"/>
</linearGradient>
<linearGradient id="paint1_linear_8_46" x1="-3.59114" y1="9.11548" x2="32.7345" y2="45.4411" gradientUnits="userSpaceOnUse">
<stop offset="2.65193e-07" stop-color="#FF7389"/>
<stop offset="1" stop-color="#FF6800"/>
</linearGradient>
<linearGradient id="paint2_linear_8_46" x1="63.0304" y1="46.0809" x2="92.5063" y2="-24.0969" gradientUnits="userSpaceOnUse">
<stop offset="2.65193e-07" stop-color="#FF7389"/>
<stop offset="1" stop-color="#FF6800"/>
</linearGradient>
<clipPath id="clip0_8_46">
<rect width="40" height="40" fill="white" transform="translate(40 2) rotate(90)"/>
</clipPath>
</defs>
</svg>
