<svg width="50" height="51" viewBox="0 0 50 51" fill="none" xmlns="http://www.w3.org/2000/svg">
<g filter="url(#filter0_d_806_644)">
<rect x="10" y="10.5" width="30" height="30" rx="15" fill="#5E3607"/>
<mask id="mask0_806_644" style="mask-type:alpha" maskUnits="userSpaceOnUse" x="15" y="15" width="20" height="21">
<rect x="15" y="15.5" width="20" height="20" fill="#D9D9D9"/>
</mask>
<g mask="url(#mask0_806_644)">
<path d="M25 33.8333C24.3056 33.8333 23.7153 33.5903 23.2292 33.1042C22.7431 32.618 22.5 32.0278 22.5 31.3333C22.5 30.6389 22.7431 30.0486 23.2292 29.5625C23.7153 29.0764 24.3056 28.8333 25 28.8333C25.6944 28.8333 26.2847 29.0764 26.7708 29.5625C27.2569 30.0486 27.5 30.6389 27.5 31.3333C27.5 32.0278 27.2569 32.618 26.7708 33.1042C26.2847 33.5903 25.6944 33.8333 25 33.8333ZM24.1667 27.1667V20.3542L22 22.5L20.8333 21.3333L25 17.1667L29.1667 21.3333L27.9792 22.5L25.8333 20.3542V27.1667H24.1667Z" fill="#C86C00"/>
</g>
</g>
<defs>
<filter id="filter0_d_806_644" x="0" y="0.5" width="50" height="50" filterUnits="userSpaceOnUse" color-interpolation-filters="sRGB">
<feFlood flood-opacity="0" result="BackgroundImageFix"/>
<feColorMatrix in="SourceAlpha" type="matrix" values="0 0 0 0 0 0 0 0 0 0 0 0 0 0 0 0 0 0 127 0" result="hardAlpha"/>
<feOffset/>
<feGaussianBlur stdDeviation="5"/>
<feComposite in2="hardAlpha" operator="out"/>
<feColorMatrix type="matrix" values="0 0 0 0 0 0 0 0 0 0 0 0 0 0 0 0 0 0 0.25 0"/>
<feBlend mode="normal" in2="BackgroundImageFix" result="effect1_dropShadow_806_644"/>
<feBlend mode="normal" in="SourceGraphic" in2="effect1_dropShadow_806_644" result="shape"/>
</filter>
</defs>
</svg>
